<svg width="36" height="32" viewBox="0 0 36 32" fill="none" xmlns="http://www.w3.org/2000/svg">
<path d="M12.4477 0.996094H4.14923C2.99653 0.996094 2.01694 1.39948 1.21 2.20601C0.403433 3.0127 0 3.99217 0 5.14479V13.4419C0 14.5944 0.403206 15.5738 1.21 16.3803C2.01686 17.1867 2.99676 17.5903 4.14923 17.5903H8.9899C9.56599 17.5903 10.0559 17.792 10.4594 18.1953C10.8628 18.5983 11.0644 19.0883 11.0644 19.6648V20.3558C11.0644 21.8829 10.5241 23.1861 9.44367 24.2667C8.36318 25.3467 7.05948 25.8869 5.53211 25.8869H4.14923C3.77441 25.8869 3.45038 26.0241 3.17653 26.2976C2.9029 26.5712 2.76598 26.8954 2.76598 27.2699V30.036C2.76598 30.4099 2.9029 30.7348 3.17653 31.0084C3.4506 31.2818 3.77433 31.4191 4.14923 31.4191H5.53218C7.03064 31.4191 8.46052 31.1269 9.82205 30.5437C11.1835 29.9605 12.3612 29.1716 13.3553 28.1776C14.3492 27.1835 15.1381 26.0062 15.7215 24.6448C16.3048 23.2836 16.5966 21.8539 16.5966 20.3559V5.14449C16.5966 3.99186 16.1932 3.01247 15.3866 2.20594C14.5799 1.3994 13.6001 0.996094 12.4477 0.996094Z" fill="#F6762C"/>
<path d="M34.7452 2.20601C33.9387 1.39948 32.959 0.996094 31.8063 0.996094H23.5082C22.3555 0.996094 21.3759 1.39948 20.5692 2.20601C19.7627 3.01277 19.3594 3.99217 19.3594 5.14479V13.4419C19.3594 14.5944 19.7627 15.5738 20.5692 16.3803C21.3759 17.1867 22.3555 17.5903 23.5082 17.5903H28.3488C28.9249 17.5903 29.4152 17.792 29.8186 18.1953C30.2216 18.5985 30.4237 19.0883 30.4237 19.6648V20.3558C30.4237 21.8829 29.8833 23.1861 28.8027 24.2667C27.7223 25.3467 26.4189 25.8869 24.8913 25.8869H23.5082C23.1336 25.8869 22.8093 26.0241 22.5358 26.2976C22.262 26.5712 22.1249 26.8954 22.1249 27.2699V30.036C22.1249 30.4099 22.262 30.7348 22.5358 31.0084C22.8092 31.2818 23.1336 31.4191 23.5082 31.4191H24.8913C26.3896 31.4191 27.8194 31.1269 29.181 30.5437C30.5423 29.9605 31.7198 29.1716 32.714 28.1776C33.7081 27.1835 34.4974 26.0059 35.0805 24.6448C35.6638 23.2839 35.9557 21.8539 35.9557 20.3559V5.14449C35.9555 3.99186 35.5524 3.01247 34.7452 2.20601Z" fill="#F6762C"/>
</svg>
